# xmcd
# 
# Track frame offsets:
#     150
#     34415
#     59285
# 
# Disc length: 1176
# 
# Revision: 0
# Processed by: cddbd v1.5.2PL0 Copyright (c) Steve Scherf et al.
# Submitted via: BonkEnc v1.0.15
# 
DISCID=23049603
DTITLE=Alex G and Fame - Put Ya Handz
DYEAR=2003
DGENRE=Trance
TTITLE0=Alex G. and Fame – Put Ya Handz (Hard Mix)
TTITLE1=Alex G. and Fame – Put Ya Handz (Trance Mix)
TTITLE2=Freedom (Green Court Remix)
EXTD=
EXTT0=
EXTT1=
EXTT2=
PLAYORDER=
